<?xml version="1.0" encoding="UTF-8"?>
<!DOCTYPE svg PUBLIC "-//W3C//DTD SVG 1.1//EN" "http://www.w3.org/Graphics/SVG/1.1/DTD/svg11.dtd">
<!-- Creator: CorelDRAW 2017 -->
<svg xmlns="http://www.w3.org/2000/svg" xml:space="preserve" width="105.833mm" height="25.0472mm" version="1.1" style="shape-rendering:geometricPrecision; text-rendering:geometricPrecision; image-rendering:optimizeQuality; fill-rule:evenodd; clip-rule:evenodd"
viewBox="0 0 10583 2505"
 xmlns:xlink="http://www.w3.org/1999/xlink">
 <defs>
  <style type="text/css">
   <![CDATA[
    .fil2 {fill:#004890}
    .fil0 {fill:#98877D}
    .fil1 {fill:#BE2C37}
   ]]>
  </style>
 </defs>
 <g id="Слой_x0020_1">
  <metadata id="CorelCorpID_0Corel-Layer"/>
  <path class="fil0" d="M6041 2453l467 1c19,-76 66,-178 94,-255 28,-76 66,-190 99,-255l897 0c29,73 173,476 196,508l489 1c-9,-49 -688,-1763 -761,-1947 -35,-89 -71,-194 -110,-278l-505 0 -866 2224zm791 -861l638 0 -316 -913c-21,23 -33,78 -44,109 -13,38 -26,74 -40,114 -32,90 -232,644 -238,689z"/>
  <path class="fil0" d="M8344 2454l461 0 195 -510 897 1 192 509 494 1c-17,-72 -75,-202 -105,-275l-548 -1394c-73,-187 -143,-374 -219,-556 -146,4 -299,2 -445,0 -74,-1 -49,-23 -105,120l-817 2106zm787 -863l638 1c-2,-38 -59,-184 -76,-230l-239 -681c-28,31 -214,592 -245,678 -21,58 -68,173 -78,232z"/>
  <path class="fil1" d="M874 251c-74,22 -269,175 -314,220 -111,111 -153,138 -257,285 -151,213 -263,457 -296,782 -73,730 437,1064 1152,941 300,-52 560,-157 782,-294 229,-142 399,-313 569,-508 271,-311 432,-652 580,-1038 29,-75 128,-341 132,-408l-151 300c-157,293 -346,578 -548,828 -241,299 -584,621 -1118,719 -592,109 -1093,-38 -1150,-611 -44,-442 203,-834 497,-1102l122 -112z"/>
  <polygon class="fil0" points="3600,2454 4911,2455 4911,2106 4051,2103 4049,230 3603,229 "/>
  <polygon class="fil0" points="5346,2454 5795,2455 5795,230 5350,229 "/>
  <path class="fil1" d="M1150 75c-128,56 -319,273 -407,393 -105,141 -203,355 -238,563 -85,512 234,873 718,874 862,1 1495,-803 1814,-1505 39,-85 115,-253 135,-343 -56,78 -157,290 -274,454 -69,97 -161,220 -242,308 -155,167 -262,290 -477,437 -140,96 -312,184 -509,227 -459,101 -883,-35 -976,-426 -63,-263 58,-506 186,-695 49,-72 109,-135 173,-199 27,-27 76,-62 97,-88z"/>
  <path class="fil2" d="M1368 5c-502,66 -414,798 82,750 196,-19 359,-198 333,-423 -23,-191 -200,-356 -415,-327z"/>
 </g>
</svg>
