<?xml version="1.0" encoding="UTF-8"?>
<!DOCTYPE svg PUBLIC "-//W3C//DTD SVG 1.1//EN" "http://www.w3.org/Graphics/SVG/1.1/DTD/svg11.dtd">
<!-- Creator: CorelDRAW 2017 -->
<svg xmlns="http://www.w3.org/2000/svg" xml:space="preserve" width="53.446mm" height="6.35mm" version="1.1" style="shape-rendering:geometricPrecision; text-rendering:geometricPrecision; image-rendering:optimizeQuality; fill-rule:evenodd; clip-rule:evenodd"
viewBox="0 0 5345 635"
 xmlns:xlink="http://www.w3.org/1999/xlink">
 <defs>
  <style type="text/css">
   <![CDATA[
    .fil0 {fill:#FEFEFE}
   ]]>
  </style>
 </defs>
 <g id="Слой_x0020_1">
  <metadata id="CorelCorpID_0Corel-Layer"/>
  <g id="partners">
   <g id="imaguru">
    <path class="fil0" d="M1240 0c19,2 38,4 56,8 98,21 160,90 175,193 3,23 5,47 5,70 1,110 0,219 0,329l0 11 -132 0c0,-4 -1,-8 -1,-12 0,-106 0,-213 0,-319 0,-28 -2,-56 -13,-83 -18,-47 -52,-71 -101,-72 -15,0 -30,-1 -44,2 -34,6 -56,28 -70,59 -13,28 -17,58 -17,88 0,108 0,216 0,324l0 14 -137 0 0 -13c0,-108 0,-216 0,-324 0,-28 -3,-55 -14,-81 -18,-43 -50,-67 -96,-68 -16,0 -33,-1 -48,2 -37,7 -59,31 -73,66 -9,24 -13,49 -13,75 0,110 0,220 0,330 0,4 0,8 0,13l-131 0c0,-2 -1,-4 -1,-6 0,-122 -1,-244 1,-365 1,-59 17,-114 54,-160 36,-45 83,-67 137,-75 13,-2 25,-3 38,-4l43 0c5,1 9,1 14,2 24,5 48,8 72,14 33,9 61,28 85,53 2,-1 3,-2 4,-3 30,-32 67,-50 109,-59 18,-4 36,-5 54,-8l43 0zm1174 24l703 0 0 130 -567 0 0 351 431 0 0 -104 -244 0 0 -109 380 0 0 344 -703 0 0 -611zm2250 611l-163 0c-29,-57 -59,-115 -88,-172l-240 0 0 172 -142 0 0 -611c3,0 7,-1 11,-1 127,0 254,0 381,0 36,0 71,5 105,18 77,32 120,91 127,177 5,63 -9,121 -51,169 -13,15 -29,27 -45,41 34,67 69,135 105,205zm-492 -307l0 -186c4,0 8,-1 11,-1 78,0 156,0 234,0 53,0 82,30 83,86 0,17 -2,35 -7,51 -10,31 -33,49 -64,50 -85,1 -169,0 -254,0 -1,0 -2,0 -4,-1zm783 155l262 0 0 -483 127 0 0 611 -516 0 0 -611 127 0 0 483zm-1245 -460l133 0c0,3 1,6 1,9 0,116 0,231 0,347 0,45 -8,89 -27,130 -29,63 -78,101 -144,116 -56,13 -114,13 -170,-1 -94,-22 -148,-86 -167,-181 -5,-26 -7,-52 -7,-78 -1,-111 0,-221 0,-332 0,-3 0,-6 0,-10l134 0 0 12c0,107 0,213 0,320 0,28 2,55 13,82 18,46 51,71 100,72 15,0 31,1 46,-2 32,-5 55,-25 70,-54 15,-29 19,-61 19,-93 0,-108 0,-216 0,-323l0 -14zm-1901 611l-144 0c71,-204 142,-408 212,-611l153 0c73,203 147,406 220,611l-145 0c-11,-34 -22,-68 -34,-103l-231 0c-11,34 -21,68 -32,103zm137 -470c23,78 47,156 70,235l-141 0c23,-79 46,-157 68,-235 1,0 1,0 2,0zm-1570 354l0 116 -375 0 0 -116 120 0 0 -379 -120 0 0 -117 375 0 0 116 -111 0 0 379 111 0z"/>
   </g>
  </g>
 </g>
</svg>
